<svg width="312" height="312" viewBox="0 0 312 312" fill="none" xmlns="http://www.w3.org/2000/svg">
<g style="mix-blend-mode:hard-light" filter="url(#filter0_d_101_6)">
<g filter="url(#filter1_b_101_6)">
<path d="M53.5 163.773V147.773L117.5 119.591V138L73.6818 155.591L74.2727 154.636V156.909L73.6818 155.955L117.5 173.545V191.955L53.5 163.773ZM177.273 95.5454L147.273 207H130.591L160.591 95.5454H177.273ZM254.375 163.773L190.375 191.955V173.545L234.193 155.955L233.602 156.909V154.636L234.193 155.591L190.375 138V119.591L254.375 147.773V163.773Z" fill="#0649F3" fill-opacity="0.99"/>
</g>
<g style="mix-blend-mode:hard-light" filter="url(#filter2_d_101_6)">
<path d="M307 152C307 235.395 239.395 303 156 303C72.605 303 5 235.395 5 152C5 68.605 72.605 1 156 1C239.395 1 307 68.605 307 152Z" fill="url(#paint0_diamond_101_6)" fill-opacity="0.5" style="mix-blend-mode:color-dodge" shape-rendering="crispEdges"/>
<path d="M307 152C307 235.395 239.395 303 156 303C72.605 303 5 235.395 5 152C5 68.605 72.605 1 156 1C239.395 1 307 68.605 307 152Z" fill="url(#paint1_diamond_101_6)" fill-opacity="0.5" shape-rendering="crispEdges"/>
<path d="M307 152C307 235.395 239.395 303 156 303C72.605 303 5 235.395 5 152C5 68.605 72.605 1 156 1C239.395 1 307 68.605 307 152Z" stroke="#2806FA" stroke-linecap="round" stroke-dasharray="2 4 6 8" style="mix-blend-mode:darken" shape-rendering="crispEdges"/>
</g>
</g>
<defs>
<filter id="filter0_d_101_6" x="0.5" y="0.5" width="311" height="311" filterUnits="userSpaceOnUse" color-interpolation-filters="sRGB">
<feFlood flood-opacity="0" result="BackgroundImageFix"/>
<feColorMatrix in="SourceAlpha" type="matrix" values="0 0 0 0 0 0 0 0 0 0 0 0 0 0 0 0 0 0 127 0" result="hardAlpha"/>
<feOffset dy="4"/>
<feGaussianBlur stdDeviation="2"/>
<feComposite in2="hardAlpha" operator="out"/>
<feColorMatrix type="matrix" values="0 0 0 0 0 0 0 0 0 0 0 0 0 0 0 0 0 0 0.25 0"/>
<feBlend mode="normal" in2="BackgroundImageFix" result="effect1_dropShadow_101_6"/>
<feBlend mode="normal" in="SourceGraphic" in2="effect1_dropShadow_101_6" result="shape"/>
</filter>
<filter id="filter1_b_101_6" x="49.5" y="91.5454" width="208.875" height="119.455" filterUnits="userSpaceOnUse" color-interpolation-filters="sRGB">
<feFlood flood-opacity="0" result="BackgroundImageFix"/>
<feGaussianBlur in="BackgroundImageFix" stdDeviation="2"/>
<feComposite in2="SourceAlpha" operator="in" result="effect1_backgroundBlur_101_6"/>
<feBlend mode="normal" in="SourceGraphic" in2="effect1_backgroundBlur_101_6" result="shape"/>
</filter>
<filter id="filter2_d_101_6" x="0.5" y="0.5" width="311" height="311" filterUnits="userSpaceOnUse" color-interpolation-filters="sRGB">
<feFlood flood-opacity="0" result="BackgroundImageFix"/>
<feColorMatrix in="SourceAlpha" type="matrix" values="0 0 0 0 0 0 0 0 0 0 0 0 0 0 0 0 0 0 127 0" result="hardAlpha"/>
<feOffset dy="4"/>
<feGaussianBlur stdDeviation="2"/>
<feComposite in2="hardAlpha" operator="out"/>
<feColorMatrix type="matrix" values="0 0 0 0 0 0 0 0 0 0 0 0 0 0 0 0 0 0 0.25 0"/>
<feBlend mode="normal" in2="BackgroundImageFix" result="effect1_dropShadow_101_6"/>
<feBlend mode="normal" in="SourceGraphic" in2="effect1_dropShadow_101_6" result="shape"/>
</filter>
<radialGradient id="paint0_diamond_101_6" cx="0" cy="0" r="1" gradientUnits="userSpaceOnUse" gradientTransform="translate(156 152) rotate(90) scale(151)">
<stop stop-color="#3CDCFF"/>
<stop offset="1" stop-color="#3CDCFF" stop-opacity="0"/>
</radialGradient>
<radialGradient id="paint1_diamond_101_6" cx="0" cy="0" r="1" gradientUnits="userSpaceOnUse" gradientTransform="translate(156 152) rotate(90) scale(151)">
<stop offset="0.59" stop-opacity="0.55"/>
<stop offset="1" stop-color="white" stop-opacity="0"/>
</radialGradient>
</defs>
</svg>
