<?xml version="1.0" standalone="no"?>
<!DOCTYPE svg PUBLIC "-//W3C//DTD SVG 20010904//EN"
 "http://www.w3.org/TR/2001/REC-SVG-20010904/DTD/svg10.dtd">
<svg version="1.0" xmlns="http://www.w3.org/2000/svg"
 width="389.000000pt" height="396.000000pt" viewBox="0 0 389.000000 396.000000"
 preserveAspectRatio="xMidYMid meet">

<g transform="translate(0.000000,396.000000) scale(0.100000,-0.100000)"
fill="#000000" stroke="none">
<path d="M0 1980 l0 -1980 1945 0 1945 0 0 1980 0 1980 -1945 0 -1945 0 0
-1980z m1870 882 c-36 -49 -39 -141 -5 -186 12 -16 29 -20 97 -22 111 -3 110
-3 103 -14 -3 -5 -2 -10 3 -10 14 0 34 27 25 32 -4 3 -2 3 5 2 20 -5 52 57 52
101 0 23 -8 57 -18 77 -10 20 -14 35 -8 34 47 -9 83 -20 92 -28 7 -5 16 -8 20
-7 17 4 144 -52 144 -63 0 -4 7 -8 15 -8 7 0 18 -6 22 -14 4 -7 15 -16 23 -19
8 -3 -5 -6 -30 -6 -94 -2 -90 4 -90 -142 l0 -129 155 -2 c85 -1 163 -2 172 -2
10 -1 20 9 24 24 6 21 11 17 8 -6 0 -4 3 -10 8 -13 22 -15 90 -190 84 -215 -1
-4 3 -14 10 -22 17 -21 24 -106 20 -246 l-1 -57 -42 -3 -43 -3 -5 -155 c-5
-145 -7 -157 -30 -190 -14 -19 -25 -38 -25 -42 0 -3 -17 -22 -37 -42 -20 -20
-44 -48 -53 -64 -11 -18 -39 -38 -74 -54 l-58 -25 -11 71 -12 71 91 350 c115
443 123 524 53 570 -33 22 -105 22 -142 0 -59 -35 -94 -110 -192 -401 -51
-154 -95 -281 -97 -284 -3 -3 -3 162 -1 365 3 336 1 374 -15 409 -9 21 -27 47
-39 57 -48 42 -145 43 -190 2 -52 -47 -53 -51 -57 -453 l-3 -375 -88 307 c-89
312 -117 380 -166 413 -61 40 -154 25 -191 -31 -36 -56 -25 -139 65 -473 45
-168 81 -306 79 -307 -1 -1 -56 89 -122 199 -66 111 -135 218 -153 238 l-32
36 0 129 c1 122 2 132 30 187 l29 59 190 -2 191 -1 0 33 c-1 18 -6 43 -13 55
-8 14 -11 59 -9 133 3 110 4 111 30 121 15 6 41 18 58 26 17 8 46 17 65 19 28
5 96 19 107 23 1 1 -7 -12 -18 -27z m157 -88 c8 -21 -7 -45 -35 -55 -15 -6
-21 -5 -17 1 3 6 1 10 -4 10 -12 0 -15 43 -4 53 13 13 54 7 60 -9z m-447 -65
l0 -59 -85 0 c-47 0 -85 3 -85 8 1 11 154 121 162 116 5 -3 8 -32 8 -65z m908
-39 c37 0 49 -6 75 -32 52 -56 87 -110 87 -135 l0 -23 -155 0 -155 0 0 101 0
102 53 -7 c28 -3 72 -6 95 -6z m-863 -158 c-6 -7 -307 -3 -314 4 -2 2 -1 11 3
20 6 16 8 16 20 -1 9 -13 19 -16 32 -10 10 4 67 7 127 7 103 0 107 1 107 22 1
19 3 18 16 -7 9 -16 13 -32 9 -35z m325 -12 c-11 -7 -4 -10 25 -10 31 0 37 3
25 11 -12 9 -12 10 -1 7 8 -3 24 -17 35 -32 20 -26 21 -41 21 -274 0 -136 -2
-320 -3 -410 -2 -90 -2 -165 0 -167 1 -2 27 -5 57 -6 64 -4 43 -45 176 351 53
157 100 289 106 295 5 5 4 -5 -2 -23 -8 -23 -8 -36 -1 -45 6 -7 13 -25 16 -40
2 -15 8 -32 12 -38 12 -20 5 -169 -11 -224 -29 -100 -124 -231 -193 -266 -15
-7 -34 -18 -42 -24 -65 -48 -250 -60 -340 -22 l-35 14 48 7 47 7 1 405 c1 222
3 409 4 414 1 6 3 17 4 25 1 19 37 55 54 55 8 0 7 -4 -3 -10z m-370 -184 c0
-11 0 -11 -29 34 l-23 35 26 -30 c14 -16 26 -34 26 -39z m69 -231 c72 -263
119 -436 127 -468 l6 -27 -33 27 c-18 16 -45 40 -60 54 -16 15 -31 24 -34 21
-3 -3 -5 -1 -5 4 0 5 -12 23 -26 39 -15 17 -33 45 -41 64 -10 23 -17 30 -22
22 -5 -8 -13 5 -20 34 -7 26 -9 50 -6 53 3 3 5 -3 5 -13 0 -10 2 -16 5 -13 4
3 3 18 -1 33 -5 20 -9 23 -15 13 -5 -8 -7 5 -4 32 2 25 7 78 10 118 3 43 15
98 30 133 13 33 22 68 19 77 -3 10 -1 9 5 -3 6 -11 33 -101 60 -200z m-182 53
c-3 -8 -6 -5 -6 6 -1 11 2 17 5 13 3 -3 4 -12 1 -19z m1026 -48 c-3 -12 -8
-19 -11 -16 -5 6 5 36 12 36 2 0 2 -9 -1 -20z m-1006 -22 c-3 -8 -6 -5 -6 6
-1 11 2 17 5 13 3 -3 4 -12 1 -19z m980 -70 c-3 -8 -6 -5 -6 6 -1 11 2 17 5
13 3 -3 4 -12 1 -19z m-947 -28 c0 -13 -1 -13 -10 0 -5 8 -10 22 -10 30 0 13
1 13 10 0 5 -8 10 -22 10 -30z m937 -12 c-3 -8 -6 -5 -6 6 -1 11 2 17 5 13 3
-3 4 -12 1 -19z m-10 -40 c-3 -8 -6 -5 -6 6 -1 11 2 17 5 13 3 -3 4 -12 1 -19z
m-12 -45 c-3 -16 -11 -32 -16 -37 -5 -6 -4 5 1 25 6 18 10 35 10 36 0 2 3 3 6
3 3 0 3 -12 -1 -27z m-24 -84 c-5 -13 -10 -19 -10 -12 -1 15 10 45 15 40 3 -2
0 -15 -5 -28z m-844 -11 c-3 -8 -6 -5 -6 6 -1 11 2 17 5 13 3 -3 4 -12 1 -19z
m10 -40 c-3 -8 -6 -5 -6 6 -1 11 2 17 5 13 3 -3 4 -12 1 -19z m820 0 c-3 -8
-6 -5 -6 6 -1 11 2 17 5 13 3 -3 4 -12 1 -19z m-810 -40 c-3 -8 -6 -5 -6 6 -1
11 2 17 5 13 3 -3 4 -12 1 -19z m800 0 c-3 -8 -6 -5 -6 6 -1 11 2 17 5 13 3
-3 4 -12 1 -19z m-790 -40 c-3 -8 -6 -5 -6 6 -1 11 2 17 5 13 3 -3 4 -12 1
-19z m780 0 c-3 -8 -6 -5 -6 6 -1 11 2 17 5 13 3 -3 4 -12 1 -19z"/>
</g>
</svg>
